<mxfile host="65bd71144e">
    <diagram id="ZIdMtqrPTh1BNRoDeDqu" name="Seite-1">
        <mxGraphModel dx="1647" dy="574" grid="1" gridSize="20" guides="1" tooltips="1" connect="1" arrows="1" fold="1" page="1" pageScale="1" pageWidth="827" pageHeight="1169" math="0" shadow="0">
            <root>
                <mxCell id="0"/>
                <mxCell id="1" parent="0"/>
                <mxCell id="11" value="" style="edgeStyle=none;html=1;fontFamily=Comic Sans MS;" edge="1" parent="1" source="9" target="10">
                    <mxGeometry relative="1" as="geometry"/>
                </mxCell>
                <mxCell id="13" style="edgeStyle=none;html=1;fontFamily=Comic Sans MS;fontSize=18;" edge="1" parent="1" source="9">
                    <mxGeometry relative="1" as="geometry">
                        <mxPoint x="-440" y="320" as="targetPoint"/>
                    </mxGeometry>
                </mxCell>
                <mxCell id="15" style="edgeStyle=none;html=1;exitX=1;exitY=0.5;exitDx=0;exitDy=0;fontFamily=Comic Sans MS;fontSize=18;" edge="1" parent="1" source="9">
                    <mxGeometry relative="1" as="geometry">
                        <mxPoint x="-160" y="320" as="targetPoint"/>
                        <Array as="points">
                            <mxPoint x="-160" y="200"/>
                        </Array>
                    </mxGeometry>
                </mxCell>
                <mxCell id="16" style="edgeStyle=none;html=1;fontFamily=Comic Sans MS;fontSize=18;" edge="1" parent="1" source="9">
                    <mxGeometry relative="1" as="geometry">
                        <mxPoint x="-720" y="320" as="targetPoint"/>
                        <Array as="points">
                            <mxPoint x="-720" y="200"/>
                        </Array>
                    </mxGeometry>
                </mxCell>
                <mxCell id="9" value="Input = Number" style="rounded=1;whiteSpace=wrap;html=1;fontFamily=Comic Sans MS;fontStyle=1;fontSize=18;" vertex="1" parent="1">
                    <mxGeometry x="-560" y="160" width="240" height="80" as="geometry"/>
                </mxCell>
                <mxCell id="12" style="edgeStyle=none;html=1;fontFamily=Comic Sans MS;" edge="1" parent="1" source="10">
                    <mxGeometry relative="1" as="geometry">
                        <mxPoint x="-440" y="140" as="targetPoint"/>
                    </mxGeometry>
                </mxCell>
                <mxCell id="10" value="Start" style="whiteSpace=wrap;html=1;fontFamily=Comic Sans MS;rounded=1;fontStyle=1;fontSize=30;fillColor=#1ba1e2;fontColor=#ffffff;strokeColor=#006EAF;" vertex="1" parent="1">
                    <mxGeometry x="-500" y="10" width="120" height="50" as="geometry"/>
                </mxCell>
                <mxCell id="33" style="edgeStyle=none;html=1;fontFamily=Comic Sans MS;fontSize=17;entryX=0.5;entryY=0;entryDx=0;entryDy=0;" edge="1" parent="1" source="14" target="29">
                    <mxGeometry relative="1" as="geometry">
                        <mxPoint x="-440" y="420" as="targetPoint"/>
                        <Array as="points">
                            <mxPoint x="-445" y="420"/>
                        </Array>
                    </mxGeometry>
                </mxCell>
                <mxCell id="14" value="random&lt;br&gt;number" style="rounded=0;whiteSpace=wrap;html=1;fontFamily=Comic Sans MS;fontSize=18;" vertex="1" parent="1">
                    <mxGeometry x="-480" y="320" width="80" height="80" as="geometry"/>
                </mxCell>
                <mxCell id="17" value="my nNumber ia higher" style="ellipse;whiteSpace=wrap;html=1;fontFamily=Comic Sans MS;fontSize=18;" vertex="1" parent="1">
                    <mxGeometry x="-780" y="320" width="120" height="80" as="geometry"/>
                </mxCell>
                <mxCell id="18" value="my number is lower" style="ellipse;whiteSpace=wrap;html=1;fontFamily=Comic Sans MS;fontSize=18;" vertex="1" parent="1">
                    <mxGeometry x="-220" y="320" width="120" height="80" as="geometry"/>
                </mxCell>
                <mxCell id="21" style="edgeStyle=none;html=1;exitX=1;exitY=0.3333333333333333;exitDx=0;exitDy=0;exitPerimeter=0;fontFamily=Comic Sans MS;fontSize=18;" edge="1" parent="1" source="19">
                    <mxGeometry relative="1" as="geometry">
                        <mxPoint x="-180" y="300" as="targetPoint"/>
                    </mxGeometry>
                </mxCell>
                <mxCell id="19" value="Actor" style="shape=umlActor;verticalLabelPosition=bottom;verticalAlign=top;html=1;outlineConnect=0;fontFamily=Comic Sans MS;fontSize=18;" vertex="1" parent="1">
                    <mxGeometry x="-240" y="140" width="30" height="60" as="geometry"/>
                </mxCell>
                <mxCell id="22" value="No!" style="text;strokeColor=none;fillColor=none;html=1;fontSize=24;fontStyle=1;verticalAlign=middle;align=center;fontFamily=Comic Sans MS;" vertex="1" parent="1">
                    <mxGeometry x="-220" y="140" width="100" height="40" as="geometry"/>
                </mxCell>
                <mxCell id="25" style="edgeStyle=none;html=1;exitX=0;exitY=0.3333333333333333;exitDx=0;exitDy=0;exitPerimeter=0;fontFamily=Comic Sans MS;fontSize=18;" edge="1" parent="1" source="23">
                    <mxGeometry relative="1" as="geometry">
                        <mxPoint x="-700" y="300" as="targetPoint"/>
                    </mxGeometry>
                </mxCell>
                <mxCell id="23" value="Actor" style="shape=umlActor;verticalLabelPosition=bottom;verticalAlign=top;html=1;outlineConnect=0;fontFamily=Comic Sans MS;fontSize=18;" vertex="1" parent="1">
                    <mxGeometry x="-671" y="140" width="30" height="60" as="geometry"/>
                </mxCell>
                <mxCell id="28" value="Jes!" style="text;html=1;strokeColor=none;fillColor=none;align=center;verticalAlign=middle;whiteSpace=wrap;rounded=0;fontFamily=Comic Sans MS;fontSize=18;" vertex="1" parent="1">
                    <mxGeometry x="-750" y="140" width="60" height="30" as="geometry"/>
                </mxCell>
                <mxCell id="36" style="edgeStyle=none;html=1;exitX=0.5;exitY=1;exitDx=0;exitDy=0;fontFamily=Comic Sans MS;fontSize=17;" edge="1" parent="1" source="29">
                    <mxGeometry relative="1" as="geometry">
                        <mxPoint x="-445" y="560" as="targetPoint"/>
                    </mxGeometry>
                </mxCell>
                <mxCell id="40" style="edgeStyle=none;html=1;exitX=0;exitY=0.5;exitDx=0;exitDy=0;entryX=0.5;entryY=1;entryDx=0;entryDy=0;fontFamily=Comic Sans MS;fontSize=30;" edge="1" parent="1" source="29" target="17">
                    <mxGeometry relative="1" as="geometry">
                        <Array as="points">
                            <mxPoint x="-720" y="490"/>
                        </Array>
                    </mxGeometry>
                </mxCell>
                <mxCell id="41" style="edgeStyle=none;html=1;entryX=0.5;entryY=1;entryDx=0;entryDy=0;fontFamily=Comic Sans MS;fontSize=30;" edge="1" parent="1" source="29" target="18">
                    <mxGeometry relative="1" as="geometry">
                        <Array as="points">
                            <mxPoint x="-160" y="490"/>
                        </Array>
                    </mxGeometry>
                </mxCell>
                <mxCell id="29" value="input random&lt;br&gt;&amp;gt;" style="rhombus;whiteSpace=wrap;html=1;fontFamily=Comic Sans MS;fontSize=18;" vertex="1" parent="1">
                    <mxGeometry x="-490" y="440" width="90" height="100" as="geometry"/>
                </mxCell>
                <mxCell id="34" value="no" style="text;strokeColor=none;fillColor=none;html=1;fontSize=24;fontStyle=1;verticalAlign=middle;align=center;fontFamily=Comic Sans MS;" vertex="1" parent="1">
                    <mxGeometry x="-463" y="400" width="100" height="40" as="geometry"/>
                </mxCell>
                <mxCell id="42" style="edgeStyle=none;html=1;entryX=0.5;entryY=0;entryDx=0;entryDy=0;fontFamily=Comic Sans MS;fontSize=30;" edge="1" parent="1" source="35" target="39">
                    <mxGeometry relative="1" as="geometry"/>
                </mxCell>
                <mxCell id="35" value="yes the corect number is X" style="rounded=1;whiteSpace=wrap;html=1;fontFamily=Comic Sans MS;fontSize=17;" vertex="1" parent="1">
                    <mxGeometry x="-500" y="585" width="120" height="60" as="geometry"/>
                </mxCell>
                <mxCell id="39" value="&lt;font style=&quot;font-size: 30px&quot;&gt;&lt;b&gt;End&lt;/b&gt;&lt;/font&gt;" style="shape=ext;double=1;rounded=1;whiteSpace=wrap;html=1;fontFamily=Comic Sans MS;fontSize=17;fillColor=#1ba1e2;strokeColor=#006EAF;fontColor=#ffffff;" vertex="1" parent="1">
                    <mxGeometry x="-500" y="720" width="120" height="80" as="geometry"/>
                </mxCell>
            </root>
        </mxGraphModel>
    </diagram>
</mxfile>